<mxfile host="app.diagrams.net" agent="Mozilla/5.0 (Windows NT 10.0; Win64; x64) AppleWebKit/537.36 (KHTML, like Gecko) Chrome/127.0.0.0 Safari/537.36" version="24.7.7">
  <diagram name="‫עמוד-1‬" id="RxYZaycGBdoJBNL9fLf0">
    <mxGraphModel dx="880" dy="468" grid="1" gridSize="10" guides="1" tooltips="1" connect="1" arrows="1" fold="1" page="1" pageScale="1" pageWidth="827" pageHeight="1169" math="0" shadow="0">
      <root>
        <mxCell id="0" />
        <mxCell id="1" parent="0" />
        <mxCell id="4XfOmVH22FHidTBxlW36-107" value="" style="edgeStyle=orthogonalEdgeStyle;rounded=0;orthogonalLoop=1;jettySize=auto;html=1;" edge="1" parent="1" source="4XfOmVH22FHidTBxlW36-71" target="4XfOmVH22FHidTBxlW36-93">
          <mxGeometry relative="1" as="geometry" />
        </mxCell>
        <mxCell id="4XfOmVH22FHidTBxlW36-71" value="start" style="rounded=1;whiteSpace=wrap;html=1;" vertex="1" parent="1">
          <mxGeometry x="360" y="40" width="120" height="60" as="geometry" />
        </mxCell>
        <mxCell id="4XfOmVH22FHidTBxlW36-109" value="" style="edgeStyle=orthogonalEdgeStyle;rounded=0;orthogonalLoop=1;jettySize=auto;html=1;" edge="1" parent="1" source="4XfOmVH22FHidTBxlW36-93" target="4XfOmVH22FHidTBxlW36-94">
          <mxGeometry relative="1" as="geometry" />
        </mxCell>
        <mxCell id="4XfOmVH22FHidTBxlW36-93" value="a: int&lt;div&gt;&#39;what is a?&#39;&lt;/div&gt;" style="shape=card;whiteSpace=wrap;html=1;" vertex="1" parent="1">
          <mxGeometry x="360" y="140" width="120" height="70" as="geometry" />
        </mxCell>
        <mxCell id="4XfOmVH22FHidTBxlW36-110" value="" style="edgeStyle=orthogonalEdgeStyle;rounded=0;orthogonalLoop=1;jettySize=auto;html=1;" edge="1" parent="1" source="4XfOmVH22FHidTBxlW36-94" target="4XfOmVH22FHidTBxlW36-95">
          <mxGeometry relative="1" as="geometry" />
        </mxCell>
        <mxCell id="4XfOmVH22FHidTBxlW36-94" value="b: int&lt;div&gt;&#39;what is b?&#39;&lt;/div&gt;" style="shape=card;whiteSpace=wrap;html=1;" vertex="1" parent="1">
          <mxGeometry x="360" y="250" width="120" height="70" as="geometry" />
        </mxCell>
        <mxCell id="4XfOmVH22FHidTBxlW36-99" value="no" style="edgeStyle=orthogonalEdgeStyle;rounded=0;orthogonalLoop=1;jettySize=auto;html=1;exitX=0;exitY=1;exitDx=0;exitDy=0;" edge="1" parent="1" source="4XfOmVH22FHidTBxlW36-95">
          <mxGeometry relative="1" as="geometry">
            <mxPoint x="300" y="480" as="targetPoint" />
          </mxGeometry>
        </mxCell>
        <mxCell id="4XfOmVH22FHidTBxlW36-95" value="a&amp;gt;b" style="rhombus;whiteSpace=wrap;html=1;" vertex="1" parent="1">
          <mxGeometry x="380" y="360" width="80" height="80" as="geometry" />
        </mxCell>
        <mxCell id="4XfOmVH22FHidTBxlW36-105" style="edgeStyle=orthogonalEdgeStyle;rounded=0;orthogonalLoop=1;jettySize=auto;html=1;entryX=1;entryY=0.75;entryDx=0;entryDy=0;" edge="1" parent="1" target="4XfOmVH22FHidTBxlW36-101">
          <mxGeometry relative="1" as="geometry">
            <mxPoint x="540" y="540" as="sourcePoint" />
            <Array as="points">
              <mxPoint x="540" y="640" />
              <mxPoint x="480" y="640" />
            </Array>
          </mxGeometry>
        </mxCell>
        <mxCell id="4XfOmVH22FHidTBxlW36-100" value="yes" style="edgeStyle=orthogonalEdgeStyle;rounded=0;orthogonalLoop=1;jettySize=auto;html=1;exitX=1;exitY=1;exitDx=0;exitDy=0;entryX=0.417;entryY=-0.033;entryDx=0;entryDy=0;entryPerimeter=0;" edge="1" parent="1" source="4XfOmVH22FHidTBxlW36-95">
          <mxGeometry relative="1" as="geometry">
            <mxPoint x="530.04" y="478.02" as="targetPoint" />
          </mxGeometry>
        </mxCell>
        <mxCell id="4XfOmVH22FHidTBxlW36-101" value="stop" style="rounded=1;whiteSpace=wrap;html=1;" vertex="1" parent="1">
          <mxGeometry x="360" y="600" width="120" height="60" as="geometry" />
        </mxCell>
        <mxCell id="4XfOmVH22FHidTBxlW36-111" value="print(a)" style="shape=document;whiteSpace=wrap;html=1;boundedLbl=1;" vertex="1" parent="1">
          <mxGeometry x="470" y="480" width="120" height="80" as="geometry" />
        </mxCell>
        <mxCell id="4XfOmVH22FHidTBxlW36-113" style="edgeStyle=orthogonalEdgeStyle;rounded=0;orthogonalLoop=1;jettySize=auto;html=1;entryX=0;entryY=0.75;entryDx=0;entryDy=0;" edge="1" parent="1" source="4XfOmVH22FHidTBxlW36-112" target="4XfOmVH22FHidTBxlW36-101">
          <mxGeometry relative="1" as="geometry" />
        </mxCell>
        <mxCell id="4XfOmVH22FHidTBxlW36-112" value="print(b)" style="shape=document;whiteSpace=wrap;html=1;boundedLbl=1;" vertex="1" parent="1">
          <mxGeometry x="240" y="480" width="120" height="80" as="geometry" />
        </mxCell>
      </root>
    </mxGraphModel>
  </diagram>
</mxfile>
